HIERARCHY
ROOT Hips
{
 OFFSET 0.000000 0.000000 0.000000
 CHANNELS 6 Xposition Yposition Zposition Yrotation Xrotation Zrotation
 JOINT Chest
 {
  OFFSET 0.000000 9.585900 0.002600
  CHANNELS 3 Yrotation Xrotation Zrotation
  JOINT Chest2
  {
   OFFSET 0.000000 9.601200 -0.005300
   CHANNELS 3 Yrotation Xrotation Zrotation
   JOINT Chest3
   {
    OFFSET 0.000000 9.561800 0.000000
    CHANNELS 3 Yrotation Xrotation Zrotation
    JOINT Chest4
    {
     OFFSET 0.000000 9.552100 0.000000
     CHANNELS 3 Yrotation Xrotation Zrotation
     JOINT Neck
     {
      OFFSET 0.000000 14.453000 0.000000
      CHANNELS 3 Yrotation Xrotation Zrotation
      JOINT Head
      {
       OFFSET 0.000000 8.936500 -0.011300
       CHANNELS 3 Yrotation Xrotation Zrotation
       End Site
       {
        OFFSET 0.000000 17.073600 -0.006000
       }
      }
     }
     JOINT RightCollar
     {
      OFFSET -2.921100 9.558500 0.000000
      CHANNELS 3 Yrotation Xrotation Zrotation
      JOINT RightShoulder
      {
       OFFSET -13.519700 0.000000 0.000000
       CHANNELS 3 Yrotation Xrotation Zrotation
       JOINT RightElbow
       {
        OFFSET 0.000000 -29.696600 0.000000
        CHANNELS 3 Yrotation Xrotation Zrotation
        JOINT RightWrist
        {
         OFFSET 0.000000 -24.004700 0.000000
         CHANNELS 3 Yrotation Xrotation Zrotation
         End Site
         {
          OFFSET 0.000000 -17.728500 0.000000
         }
        }
       }
      }
     }
     JOINT LeftCollar
     {
      OFFSET 2.921100 9.558500 0.000000
      CHANNELS 3 Yrotation Xrotation Zrotation
      JOINT LeftShoulder
      {
       OFFSET 13.519700 0.000000 0.000000
       CHANNELS 3 Yrotation Xrotation Zrotation
       JOINT LeftElbow
       {
        OFFSET 0.000000 -29.696600 0.000000
        CHANNELS 3 Yrotation Xrotation Zrotation
        JOINT LeftWrist
        {
         OFFSET 0.000000 -24.004700 0.000000
         CHANNELS 3 Yrotation Xrotation Zrotation
         End Site
         {
          OFFSET 0.000000 -17.728500 0.000000
         }
        }
       }
      }
     }
    }
   }
  }
 }
 JOINT RightHip
 {
  OFFSET -7.771700 -0.012900 -0.001300
  CHANNELS 3 Yrotation Xrotation Zrotation
  JOINT RightKnee
  {
   OFFSET 0.000000 -40.869800 0.001200
   CHANNELS 3 Yrotation Xrotation Zrotation
   JOINT RightAnkle
   {
    OFFSET 0.000000 -39.717900 0.002100
    CHANNELS 3 Yrotation Xrotation Zrotation
    JOINT RightToe
    {
     OFFSET 0.000000 -4.965400 11.033500
     CHANNELS 3 Yrotation Xrotation Zrotation
     End Site
     {
      OFFSET 0.000000 -1.423100 5.872300
     }
    }
   }
  }
 }
 JOINT LeftHip
 {
  OFFSET 7.771700 -0.012900 -0.001300
  CHANNELS 3 Yrotation Xrotation Zrotation
  JOINT LeftKnee
  {
   OFFSET 0.000000 -40.869800 0.001200
   CHANNELS 3 Yrotation Xrotation Zrotation
   JOINT LeftAnkle
   {
    OFFSET 0.000000 -39.717900 0.002100
    CHANNELS 3 Yrotation Xrotation Zrotation
    JOINT LeftToe
    {
     OFFSET 0.000000 -4.965400 11.033500
     CHANNELS 3 Yrotation Xrotation Zrotation
     End Site
     {
      OFFSET 0.000000 -1.423100 5.872300
     }
    }
   }
  }
 }
}
MOTION
Frames: 5
Frame Time: 0.008333
-163.250690 49.076125 17.556375 176.325014 -29.980222 -3.600689 0.736190 18.267702 2.144396 0.060893 2.090826 0.195860 0.100737 3.468078 0.341294 0.657139 16.013029 1.624442 4.488931 18.947565 -1.894396 8.815752 -0.333484 -4.888885 -2.189229 -3.695396 -4.322397 8.316482 -10.771180 -12.520790 -37.431059 -41.461576 89.147486 1.974513 2.642064 -15.929456 -0.089679 -3.453403 3.392982 -9.360368 -4.811347 14.667528 68.550621 -66.183927 -107.053718 3.469160 9.444395 5.974633 -2.912987 -55.009005 -6.276305 178.722102 83.656295 -169.069322 -29.448625 -2.412164 -3.216908 -0.024597 -12.059534 0.005203 -13.742403 -56.501956 19.697428 -74.125132 65.707265 -79.477837 30.518910 6.185489 16.154311 0.197427 -0.253430 0.102116
-163.246651 49.077963 17.559388 176.328748 -29.984834 -3.582954 0.723405 18.280413 2.144742 0.061898 2.087090 0.183175 0.095484 3.475005 0.347708 0.641697 16.019380 1.617334 4.497301 18.935293 -1.905087 8.782637 -0.343839 -4.822969 -2.184429 -3.735991 -4.340969 8.336657 -10.756470 -12.557209 -37.415107 -41.449539 89.139955 1.986866 2.647005 -15.864137 -0.115611 -3.488383 3.401568 -9.415966 -4.812426 14.704740 68.477718 -66.152665 -107.002161 3.512291 9.441547 6.009540 -2.920311 -55.012853 -6.281040 178.716580 83.652026 -169.093668 -29.462130 -2.412158 -3.217650 -0.018076 -12.059920 0.006229 -13.706768 -56.493115 19.676871 -74.078681 65.694970 -79.442062 30.533141 6.188068 16.155077 0.183828 -0.250970 0.110862
-163.244442 49.078544 17.563895 176.341328 -29.976353 -3.551855 0.696171 18.279020 2.119294 0.060561 2.089602 0.184956 0.092296 3.476684 0.344122 0.627915 16.025353 1.609995 4.494167 18.929976 -1.896698 8.777878 -0.355835 -4.815522 -2.173384 -3.777409 -4.355017 8.358371 -10.738913 -12.602828 -37.413757 -41.425713 89.152999 1.986501 2.657213 -15.830446 -0.141620 -3.523309 3.411265 -9.476311 -4.808941 14.747989 68.396033 -66.122123 -106.939787 3.558995 9.434522 6.040678 -2.904337 -55.032904 -6.325769 178.707634 83.639733 -169.121191 -29.442273 -2.412629 -3.226437 -0.029632 -12.059955 0.016183 -13.658515 -56.501220 19.632498 -73.989399 65.696853 -79.375312 30.534297 6.206803 16.188157 0.161211 -0.258829 0.106437
-163.239129 49.080424 17.566544 176.344625 -29.982710 -3.528270 0.681898 18.290846 2.104279 0.056581 2.095397 0.192880 0.091808 3.475467 0.334559 0.615457 16.031590 1.603407 4.478711 18.931210 -1.872463 8.785900 -0.374811 -4.828759 -2.168159 -3.822882 -4.369168 8.390328 -10.720051 -12.652681 -37.426661 -41.394814 89.177672 1.989049 2.682478 -15.798548 -0.164599 -3.556195 3.414395 -9.544690 -4.802067 14.805922 68.315590 -66.090964 -106.874251 3.602583 9.389708 6.104364 -2.897421 -55.036375 -6.349589 178.633004 83.633909 -169.206306 -29.450637 -2.408470 -3.233914 -0.012389 -12.067690 0.015696 -13.616070 -56.492051 19.602739 -73.950924 65.683918 -79.345697 30.531311 6.209382 16.198332 0.158607 -0.255409 0.104552
-163.231744 49.082313 17.569569 176.344532 -29.988074 -3.511673 0.672673 18.301870 2.096218 0.058427 2.093000 0.188701 0.087265 3.482915 0.337461 0.606166 16.038275 1.597462 4.478582 18.920686 -1.869934 8.786607 -0.383761 -4.828378 -2.169585 -3.884235 -4.380330 8.417883 -10.683290 -12.672812 -37.440726 -41.375816 89.195020 2.004220 2.735323 -15.761617 -0.187822 -3.591527 3.420473 -9.617287 -4.789608 14.866145 68.239987 -66.058330 -106.810081 3.645394 9.339263 6.166029 -2.892267 -55.039520 -6.361881 178.626934 83.626199 -169.221829 -29.435989 -2.400752 -3.240246 -0.021363 -12.077059 0.018300 -13.588462 -56.480602 19.588909 -73.911733 65.670158 -79.314149 30.537238 6.209446 16.207295 0.158689 -0.248263 0.097074
